<?xml version="1.0" encoding="UTF-8"?>
<svg xmlns="http://www.w3.org/2000/svg" viewBox="0 0 512 512">
  <defs>
    <style>
      .cls-1 {
        font-size: 205.38px;
      }

      .cls-1, .cls-2 {
        font-family: ZCOOLQingKeHuangYou-Regular, 'ZCOOL QingKe HuangYou';
      }

      .cls-1, .cls-2, .cls-3 {
        fill: #f9f9f9;
      }

      .cls-2 {
        font-size: 205.38px;
      }

      .cls-4, .cls-5 {
        fill: #ff9f1c;
      }

      .cls-5 {
        stroke: #f9f9f9;
        stroke-miterlimit: 10;
        stroke-width: 6px;
      }
    </style>
  </defs>
  <g id="Background">
    <rect class="cls-4" width="512" height="512" rx="51.25" ry="51.25"/>
  </g>
  <g id="Seal_Border" data-name="Seal Border">
    <rect class="cls-5" x="40" y="40" width="432" height="432" rx="14.24" ry="14.24"/>
  </g>
  <g id="Seal_Text" data-name="Seal Text">
    <text class="cls-2" transform="translate(40 433.6) scale(1.36 1)"><tspan x="0" y="0">赓</tspan></text>
    <text class="cls-1" transform="translate(256.28 224.07) scale(1.36 1)"><tspan x="0" y="0">礽</tspan></text>
    <text class="cls-1" transform="translate(40 220.6) scale(1.36 1)"><tspan x="0" y="0">郑</tspan></text>
  </g>
  <g id="Bottom_Right_Fill" data-name="Bottom Right Fill">
    <path class="cls-3" d="M346.77,422.57h32.95c5.29,0,9.59-4.39,9.59-9.78s-4.31-9.78-9.59-9.78h-32.95c-5.29,0-9.59,4.39-9.59,9.78s4.31,9.78,9.59,9.78Z"/>
    <path class="cls-3" d="M327.4,318.29c-16.2,0-29.33,13.13-29.33,29.33s13.13,29.33,29.33,29.33h71.69c16.2,0,29.33-13.13,29.33-29.33s-13.13-29.33-29.33-29.33h-71.69Zm4.89,13.03c4.5,0,8.15,3.65,8.15,8.15v16.29c0,4.5-3.65,8.15-8.15,8.15s-8.15-3.65-8.15-8.15v-16.29c0-4.5,3.65-8.15,8.15-8.15Zm53.77,8.15c0-4.5,3.65-8.15,8.15-8.15s8.15,3.65,8.15,8.15v16.29c0,4.5-3.65,8.15-8.15,8.15s-8.15-3.65-8.15-8.15v-16.29Z"/>
    <path class="cls-3" d="M285.04,285.15c3.8-1.34,6.52-4.96,6.52-9.22,0-5.4-4.38-9.78-9.78-9.78s-9.78,4.38-9.78,9.78c0,4.26,2.72,7.88,6.52,9.22v47.93c-3.89,2.26-6.52,6.47-6.52,11.27v45.64c0,4.79,2.63,9.01,6.52,11.27v8.6c0,25.04,20.25,45.29,45.29,45.29h78.86c25.03,0,45.29-20.25,45.29-45.23v-9.06c3.89-2.26,6.52-6.48,6.52-11.28v-45.69c0-4.8-2.63-9.01-6.52-11.28v-1.3s0-45.51,0-45.51c3.98-1.36,6.84-5.13,6.84-9.56,0-5.58-4.52-10.1-10.1-10.1s-10.1,4.52-10.1,10.1c0,4.44,2.86,8.21,6.84,9.56v22.13c-8.01-13.33-22.59-22.25-39.23-22.25h-6.94c.36-1.02,.56-2.12,.56-3.26,0-5.4-4.38-9.78-9.78-9.78h-45.62c-5.4,0-9.78,4.38-9.78,9.78,0,1.14,.2,2.24,.56,3.26h-6.88c-16.68,0-31.29,8.92-39.3,22.25v-22.81Zm6.52,46.37c0-18.1,14.68-32.78,32.78-32.78h77.88c18.03,0,32.72,14.67,32.72,32.78v78.4c0,17.77-14.41,32.2-32.26,32.2h-78.86c-17.84,0-32.26-14.42-32.26-32.26v-78.34Z"/>
  </g>
</svg>