<?xml version="1.0" encoding="UTF-8"?>
<svg xmlns="http://www.w3.org/2000/svg" viewBox="0 0 512 512">
  <defs>
    <style>
      @font-face {
        font-family: "ZCOOL QingKe HuangYou", sans-serif;
        font-weight: 400;
        font-style: normal;
        src: url('https://fonts.googleapis.com/css2?family=ZCOOL+QingKe+HuangYou');
      }

      .cls-1 {
        font-size: 205.38px;
      }

      .cls-1, .cls-2 {
        font-family: ZCOOLQingKeHuangYou-Regular, 'ZCOOL QingKe HuangYou';
      }

      .cls-1, .cls-2, .cls-3 {
        fill: #f9f9f9;
      }

      .cls-2 {
        font-size: 205.38px;
      }

      .cls-4, .cls-5 {
        fill: #ff9f1c;
      }

      .cls-3 {
        fill-rule: evenodd;
      }

      .cls-5 {
        stroke: #f9f9f9;
        stroke-miterlimit: 10;
        stroke-width: 6px;
      }
    </style>
  </defs>
  <g id="Background">
    <rect class="cls-4" width="512" height="512" rx="51.25" ry="51.25"/>
  </g>
  <g id="Seal_Border" data-name="Seal Border">
    <rect class="cls-5" x="40" y="40" width="432" height="432" rx="14.24" ry="14.24"/>
  </g>
  <g id="Seal_Text" data-name="Seal Text">
    <text class="cls-1" transform="translate(42 220.6) scale(1.36 1)"><tspan x="0" y="0">郑礽</tspan></text>
    <text class="cls-2" transform="translate(40 433.6) scale(1.36 1)"><tspan x="0" y="0">赓</tspan></text>
  </g>
  <g id="Bottom_Right_Fill" data-name="Bottom Right Fill">
    <path class="cls-3" d="M340.73,406.11l-7.63-21.02-4.68-3.75c-14.72-11.8-24.09-29.86-24.09-50.13,0-35.46,28.74-64.2,64.2-64.2s64.2,28.74,64.2,64.2c0,20.26-9.36,38.33-24.08,50.13l-4.68,3.75-7.63,21.02h-55.61Zm-15,21.4h85.6l10.7-29.47c19.57-15.69,32.1-39.79,32.1-66.83,0-47.28-38.32-85.6-85.6-85.6s-85.6,38.32-85.6,85.6c0,27.03,12.53,51.14,32.1,66.83l10.7,29.47Zm74.9,32.1v-21.4h-64.2v21.4h64.2Z"/>
  </g>
</svg>